<mxfile host="app.diagrams.net" modified="2022-05-24T11:11:14.765Z" agent="5.0 (Windows NT 10.0; Win64; x64) AppleWebKit/537.36 (KHTML, like Gecko) Chrome/101.0.4951.67 Safari/537.36" etag="K8RaKJR6nIKJUX-y4mLv" version="18.1.2" type="github">
  <diagram id="C5RBs43oDa-KdzZeNtuy" name="Page-1">
    <mxGraphModel dx="1422" dy="794" grid="1" gridSize="10" guides="1" tooltips="1" connect="1" arrows="1" fold="1" page="1" pageScale="1" pageWidth="827" pageHeight="1169" math="0" shadow="0">
      <root>
        <mxCell id="WIyWlLk6GJQsqaUBKTNV-0" />
        <mxCell id="WIyWlLk6GJQsqaUBKTNV-1" parent="WIyWlLk6GJQsqaUBKTNV-0" />
        <mxCell id="TdBKON88CPRP7MeFWVMC-5" style="edgeStyle=orthogonalEdgeStyle;rounded=0;orthogonalLoop=1;jettySize=auto;html=1;exitX=1;exitY=0.5;exitDx=0;exitDy=0;entryX=0;entryY=0.5;entryDx=0;entryDy=0;" edge="1" parent="WIyWlLk6GJQsqaUBKTNV-1" source="TdBKON88CPRP7MeFWVMC-1" target="TdBKON88CPRP7MeFWVMC-7">
          <mxGeometry relative="1" as="geometry">
            <mxPoint x="178" y="79" as="sourcePoint" />
            <mxPoint x="378" y="79" as="targetPoint" />
          </mxGeometry>
        </mxCell>
        <mxCell id="TdBKON88CPRP7MeFWVMC-6" value="调用签到脚本" style="edgeLabel;html=1;align=center;verticalAlign=middle;resizable=0;points=[];" vertex="1" connectable="0" parent="TdBKON88CPRP7MeFWVMC-5">
          <mxGeometry x="-0.1667" y="3" relative="1" as="geometry">
            <mxPoint x="-2" y="-7" as="offset" />
          </mxGeometry>
        </mxCell>
        <mxCell id="TdBKON88CPRP7MeFWVMC-1" value="TestServer" style="rounded=1;whiteSpace=wrap;html=1;fontSize=12;glass=0;strokeWidth=1;shadow=0;" vertex="1" parent="WIyWlLk6GJQsqaUBKTNV-1">
          <mxGeometry x="30" y="54" width="120" height="50" as="geometry" />
        </mxCell>
        <mxCell id="TdBKON88CPRP7MeFWVMC-46" value="" style="edgeStyle=orthogonalEdgeStyle;rounded=0;orthogonalLoop=1;jettySize=auto;html=1;" edge="1" parent="WIyWlLk6GJQsqaUBKTNV-1" source="TdBKON88CPRP7MeFWVMC-7" target="TdBKON88CPRP7MeFWVMC-9">
          <mxGeometry relative="1" as="geometry" />
        </mxCell>
        <mxCell id="TdBKON88CPRP7MeFWVMC-7" value="获取任务配置" style="rounded=1;whiteSpace=wrap;html=1;fontSize=12;glass=0;strokeWidth=1;shadow=0;" vertex="1" parent="WIyWlLk6GJQsqaUBKTNV-1">
          <mxGeometry x="372" y="54" width="120" height="50" as="geometry" />
        </mxCell>
        <mxCell id="TdBKON88CPRP7MeFWVMC-47" value="" style="edgeStyle=orthogonalEdgeStyle;rounded=0;orthogonalLoop=1;jettySize=auto;html=1;" edge="1" parent="WIyWlLk6GJQsqaUBKTNV-1" source="TdBKON88CPRP7MeFWVMC-9" target="TdBKON88CPRP7MeFWVMC-13">
          <mxGeometry relative="1" as="geometry" />
        </mxCell>
        <mxCell id="TdBKON88CPRP7MeFWVMC-9" value="筛选未签到的用户" style="rounded=1;whiteSpace=wrap;html=1;fontSize=12;glass=0;strokeWidth=1;shadow=0;" vertex="1" parent="WIyWlLk6GJQsqaUBKTNV-1">
          <mxGeometry x="372" y="138" width="120" height="50" as="geometry" />
        </mxCell>
        <mxCell id="TdBKON88CPRP7MeFWVMC-20" style="edgeStyle=orthogonalEdgeStyle;rounded=0;orthogonalLoop=1;jettySize=auto;html=1;exitX=1;exitY=0.5;exitDx=0;exitDy=0;entryX=0;entryY=0.5;entryDx=0;entryDy=0;" edge="1" parent="WIyWlLk6GJQsqaUBKTNV-1" source="TdBKON88CPRP7MeFWVMC-13" target="TdBKON88CPRP7MeFWVMC-90">
          <mxGeometry relative="1" as="geometry">
            <mxPoint x="492" y="354" as="sourcePoint" />
            <mxPoint x="642" y="408" as="targetPoint" />
          </mxGeometry>
        </mxCell>
        <mxCell id="TdBKON88CPRP7MeFWVMC-42" value="验证重复签到逻辑" style="edgeLabel;html=1;align=center;verticalAlign=middle;resizable=0;points=[];" vertex="1" connectable="0" parent="TdBKON88CPRP7MeFWVMC-20">
          <mxGeometry x="-0.0687" y="2" relative="1" as="geometry">
            <mxPoint as="offset" />
          </mxGeometry>
        </mxCell>
        <mxCell id="TdBKON88CPRP7MeFWVMC-13" value="调用签到" style="rounded=1;whiteSpace=wrap;html=1;fontSize=12;glass=0;strokeWidth=1;shadow=0;" vertex="1" parent="WIyWlLk6GJQsqaUBKTNV-1">
          <mxGeometry x="372" y="224" width="120" height="50" as="geometry" />
        </mxCell>
        <mxCell id="TdBKON88CPRP7MeFWVMC-38" style="edgeStyle=orthogonalEdgeStyle;rounded=0;orthogonalLoop=1;jettySize=auto;html=1;entryX=1;entryY=0.5;entryDx=0;entryDy=0;exitX=0.5;exitY=1;exitDx=0;exitDy=0;" edge="1" parent="WIyWlLk6GJQsqaUBKTNV-1" source="TdBKON88CPRP7MeFWVMC-90" target="TdBKON88CPRP7MeFWVMC-21">
          <mxGeometry relative="1" as="geometry">
            <mxPoint x="642" y="458" as="sourcePoint" />
          </mxGeometry>
        </mxCell>
        <mxCell id="TdBKON88CPRP7MeFWVMC-49" style="edgeStyle=orthogonalEdgeStyle;rounded=0;orthogonalLoop=1;jettySize=auto;html=1;entryX=0.5;entryY=0;entryDx=0;entryDy=0;" edge="1" parent="WIyWlLk6GJQsqaUBKTNV-1" source="TdBKON88CPRP7MeFWVMC-21" target="TdBKON88CPRP7MeFWVMC-25">
          <mxGeometry relative="1" as="geometry" />
        </mxCell>
        <mxCell id="TdBKON88CPRP7MeFWVMC-21" value="生成单次签到信息" style="rounded=1;whiteSpace=wrap;html=1;fontSize=12;glass=0;strokeWidth=1;shadow=0;" vertex="1" parent="WIyWlLk6GJQsqaUBKTNV-1">
          <mxGeometry x="372" y="493" width="120" height="50" as="geometry" />
        </mxCell>
        <mxCell id="TdBKON88CPRP7MeFWVMC-100" style="edgeStyle=orthogonalEdgeStyle;rounded=0;orthogonalLoop=1;jettySize=auto;html=1;exitX=1;exitY=0.5;exitDx=0;exitDy=0;entryX=0.5;entryY=1;entryDx=0;entryDy=0;" edge="1" parent="WIyWlLk6GJQsqaUBKTNV-1" source="TdBKON88CPRP7MeFWVMC-25" target="TdBKON88CPRP7MeFWVMC-43">
          <mxGeometry relative="1" as="geometry" />
        </mxCell>
        <mxCell id="TdBKON88CPRP7MeFWVMC-25" value="汇总为整体签到结果" style="rounded=1;whiteSpace=wrap;html=1;fontSize=12;glass=0;strokeWidth=1;shadow=0;imageHeight=24;" vertex="1" parent="WIyWlLk6GJQsqaUBKTNV-1">
          <mxGeometry x="372" y="676" width="120" height="50" as="geometry" />
        </mxCell>
        <mxCell id="TdBKON88CPRP7MeFWVMC-94" style="edgeStyle=orthogonalEdgeStyle;rounded=0;orthogonalLoop=1;jettySize=auto;html=1;exitX=1;exitY=0.5;exitDx=0;exitDy=0;entryX=0.5;entryY=0;entryDx=0;entryDy=0;" edge="1" parent="WIyWlLk6GJQsqaUBKTNV-1" source="TdBKON88CPRP7MeFWVMC-39" target="TdBKON88CPRP7MeFWVMC-89">
          <mxGeometry relative="1" as="geometry" />
        </mxCell>
        <mxCell id="TdBKON88CPRP7MeFWVMC-95" style="edgeStyle=orthogonalEdgeStyle;rounded=0;orthogonalLoop=1;jettySize=auto;html=1;exitX=0;exitY=0.5;exitDx=0;exitDy=0;entryX=0.5;entryY=0;entryDx=0;entryDy=0;" edge="1" parent="WIyWlLk6GJQsqaUBKTNV-1" source="TdBKON88CPRP7MeFWVMC-39" target="TdBKON88CPRP7MeFWVMC-88">
          <mxGeometry relative="1" as="geometry" />
        </mxCell>
        <mxCell id="TdBKON88CPRP7MeFWVMC-39" value="校验奖励下发" style="rounded=1;whiteSpace=wrap;html=1;fontSize=12;glass=0;strokeWidth=1;shadow=0;" vertex="1" parent="WIyWlLk6GJQsqaUBKTNV-1">
          <mxGeometry x="372" y="324" width="120" height="50" as="geometry" />
        </mxCell>
        <mxCell id="TdBKON88CPRP7MeFWVMC-43" value="发送到信联" style="rounded=1;whiteSpace=wrap;html=1;fontSize=12;glass=0;strokeWidth=1;shadow=0;" vertex="1" parent="WIyWlLk6GJQsqaUBKTNV-1">
          <mxGeometry x="552" y="585" width="120" height="50" as="geometry" />
        </mxCell>
        <mxCell id="TdBKON88CPRP7MeFWVMC-55" value="TestServer" style="rounded=1;whiteSpace=wrap;html=1;fontSize=12;glass=0;strokeWidth=1;shadow=0;" vertex="1" parent="WIyWlLk6GJQsqaUBKTNV-1">
          <mxGeometry x="30" y="54" width="120" height="50" as="geometry" />
        </mxCell>
        <mxCell id="TdBKON88CPRP7MeFWVMC-56" value="获取任务配置" style="rounded=1;whiteSpace=wrap;html=1;fontSize=12;glass=0;strokeWidth=1;shadow=0;" vertex="1" parent="WIyWlLk6GJQsqaUBKTNV-1">
          <mxGeometry x="372" y="54" width="120" height="50" as="geometry" />
        </mxCell>
        <mxCell id="TdBKON88CPRP7MeFWVMC-57" value="筛选未签到的用户" style="rounded=1;whiteSpace=wrap;html=1;fontSize=12;glass=0;strokeWidth=1;shadow=0;" vertex="1" parent="WIyWlLk6GJQsqaUBKTNV-1">
          <mxGeometry x="372" y="138" width="120" height="50" as="geometry" />
        </mxCell>
        <mxCell id="TdBKON88CPRP7MeFWVMC-58" value="调用签到" style="rounded=1;whiteSpace=wrap;html=1;fontSize=12;glass=0;strokeWidth=1;shadow=0;" vertex="1" parent="WIyWlLk6GJQsqaUBKTNV-1">
          <mxGeometry x="372" y="224" width="120" height="50" as="geometry" />
        </mxCell>
        <mxCell id="TdBKON88CPRP7MeFWVMC-63" value="生成单次签到信息" style="rounded=1;whiteSpace=wrap;html=1;fontSize=12;glass=0;strokeWidth=1;shadow=0;" vertex="1" parent="WIyWlLk6GJQsqaUBKTNV-1">
          <mxGeometry x="372" y="493" width="120" height="50" as="geometry" />
        </mxCell>
        <mxCell id="TdBKON88CPRP7MeFWVMC-64" value="TestServer" style="rounded=1;whiteSpace=wrap;html=1;fontSize=12;glass=0;strokeWidth=1;shadow=0;" vertex="1" parent="WIyWlLk6GJQsqaUBKTNV-1">
          <mxGeometry x="30" y="54" width="120" height="50" as="geometry" />
        </mxCell>
        <mxCell id="TdBKON88CPRP7MeFWVMC-65" value="获取任务配置" style="rounded=1;whiteSpace=wrap;html=1;fontSize=12;glass=0;strokeWidth=1;shadow=0;" vertex="1" parent="WIyWlLk6GJQsqaUBKTNV-1">
          <mxGeometry x="372" y="54" width="120" height="50" as="geometry" />
        </mxCell>
        <mxCell id="TdBKON88CPRP7MeFWVMC-66" value="筛选未签到的用户" style="rounded=1;whiteSpace=wrap;html=1;fontSize=12;glass=0;strokeWidth=1;shadow=0;" vertex="1" parent="WIyWlLk6GJQsqaUBKTNV-1">
          <mxGeometry x="372" y="138" width="120" height="50" as="geometry" />
        </mxCell>
        <mxCell id="TdBKON88CPRP7MeFWVMC-67" value="调用签到" style="rounded=1;whiteSpace=wrap;html=1;fontSize=12;glass=0;strokeWidth=1;shadow=0;" vertex="1" parent="WIyWlLk6GJQsqaUBKTNV-1">
          <mxGeometry x="372" y="224" width="120" height="50" as="geometry" />
        </mxCell>
        <mxCell id="TdBKON88CPRP7MeFWVMC-72" value="生成单次签到信息" style="rounded=1;whiteSpace=wrap;html=1;fontSize=12;glass=0;strokeWidth=1;shadow=0;" vertex="1" parent="WIyWlLk6GJQsqaUBKTNV-1">
          <mxGeometry x="372" y="493" width="120" height="50" as="geometry" />
        </mxCell>
        <mxCell id="TdBKON88CPRP7MeFWVMC-73" value="TestServer" style="rounded=1;whiteSpace=wrap;html=1;fontSize=12;glass=0;strokeWidth=1;shadow=0;" vertex="1" parent="WIyWlLk6GJQsqaUBKTNV-1">
          <mxGeometry x="30" y="54" width="120" height="50" as="geometry" />
        </mxCell>
        <mxCell id="TdBKON88CPRP7MeFWVMC-74" value="获取任务配置" style="rounded=1;whiteSpace=wrap;html=1;fontSize=12;glass=0;strokeWidth=1;shadow=0;" vertex="1" parent="WIyWlLk6GJQsqaUBKTNV-1">
          <mxGeometry x="372" y="54" width="120" height="50" as="geometry" />
        </mxCell>
        <mxCell id="TdBKON88CPRP7MeFWVMC-75" value="筛选未签到的用户" style="rounded=1;whiteSpace=wrap;html=1;fontSize=12;glass=0;strokeWidth=1;shadow=0;" vertex="1" parent="WIyWlLk6GJQsqaUBKTNV-1">
          <mxGeometry x="372" y="138" width="120" height="50" as="geometry" />
        </mxCell>
        <mxCell id="TdBKON88CPRP7MeFWVMC-76" value="调用签到" style="rounded=1;whiteSpace=wrap;html=1;fontSize=12;glass=0;strokeWidth=1;shadow=0;" vertex="1" parent="WIyWlLk6GJQsqaUBKTNV-1">
          <mxGeometry x="372" y="224" width="120" height="50" as="geometry" />
        </mxCell>
        <mxCell id="TdBKON88CPRP7MeFWVMC-81" value="生成单次签到信息" style="rounded=1;whiteSpace=wrap;html=1;fontSize=12;glass=0;strokeWidth=1;shadow=0;" vertex="1" parent="WIyWlLk6GJQsqaUBKTNV-1">
          <mxGeometry x="372" y="493" width="120" height="50" as="geometry" />
        </mxCell>
        <mxCell id="TdBKON88CPRP7MeFWVMC-83" value="TestServer" style="rounded=1;whiteSpace=wrap;html=1;fontSize=12;glass=0;strokeWidth=1;shadow=0;imageHeight=24;" vertex="1" parent="WIyWlLk6GJQsqaUBKTNV-1">
          <mxGeometry x="30" y="54" width="120" height="50" as="geometry" />
        </mxCell>
        <mxCell id="TdBKON88CPRP7MeFWVMC-84" value="获取任务配置" style="rounded=1;whiteSpace=wrap;html=1;fontSize=12;glass=0;strokeWidth=1;shadow=0;imageHeight=24;" vertex="1" parent="WIyWlLk6GJQsqaUBKTNV-1">
          <mxGeometry x="372" y="54" width="120" height="50" as="geometry" />
        </mxCell>
        <mxCell id="TdBKON88CPRP7MeFWVMC-85" value="筛选未签到的用户" style="rounded=1;whiteSpace=wrap;html=1;fontSize=12;glass=0;strokeWidth=1;shadow=0;imageHeight=24;" vertex="1" parent="WIyWlLk6GJQsqaUBKTNV-1">
          <mxGeometry x="372" y="138" width="120" height="50" as="geometry" />
        </mxCell>
        <mxCell id="TdBKON88CPRP7MeFWVMC-98" value="正常签到" style="edgeStyle=orthogonalEdgeStyle;rounded=0;orthogonalLoop=1;jettySize=auto;html=1;" edge="1" parent="WIyWlLk6GJQsqaUBKTNV-1" source="TdBKON88CPRP7MeFWVMC-86" target="TdBKON88CPRP7MeFWVMC-39">
          <mxGeometry relative="1" as="geometry" />
        </mxCell>
        <mxCell id="TdBKON88CPRP7MeFWVMC-86" value="调用签到" style="rounded=1;whiteSpace=wrap;html=1;fontSize=12;glass=0;strokeWidth=1;shadow=0;imageHeight=24;" vertex="1" parent="WIyWlLk6GJQsqaUBKTNV-1">
          <mxGeometry x="372" y="224" width="120" height="50" as="geometry" />
        </mxCell>
        <mxCell id="TdBKON88CPRP7MeFWVMC-97" style="edgeStyle=orthogonalEdgeStyle;rounded=0;orthogonalLoop=1;jettySize=auto;html=1;exitX=0.5;exitY=1;exitDx=0;exitDy=0;entryX=0.5;entryY=0;entryDx=0;entryDy=0;" edge="1" parent="WIyWlLk6GJQsqaUBKTNV-1" source="TdBKON88CPRP7MeFWVMC-88" target="TdBKON88CPRP7MeFWVMC-91">
          <mxGeometry relative="1" as="geometry" />
        </mxCell>
        <mxCell id="TdBKON88CPRP7MeFWVMC-88" value="统计失败信息" style="rounded=1;whiteSpace=wrap;html=1;fontSize=12;glass=0;strokeWidth=1;shadow=0;imageHeight=24;" vertex="1" parent="WIyWlLk6GJQsqaUBKTNV-1">
          <mxGeometry x="252" y="387" width="120" height="50" as="geometry" />
        </mxCell>
        <mxCell id="TdBKON88CPRP7MeFWVMC-96" style="edgeStyle=orthogonalEdgeStyle;rounded=0;orthogonalLoop=1;jettySize=auto;html=1;exitX=0.5;exitY=1;exitDx=0;exitDy=0;entryX=0.5;entryY=0;entryDx=0;entryDy=0;" edge="1" parent="WIyWlLk6GJQsqaUBKTNV-1" source="TdBKON88CPRP7MeFWVMC-89" target="TdBKON88CPRP7MeFWVMC-91">
          <mxGeometry relative="1" as="geometry" />
        </mxCell>
        <mxCell id="TdBKON88CPRP7MeFWVMC-89" value="统计成功信息" style="rounded=1;whiteSpace=wrap;html=1;fontSize=12;glass=0;strokeWidth=1;shadow=0;imageHeight=24;" vertex="1" parent="WIyWlLk6GJQsqaUBKTNV-1">
          <mxGeometry x="492" y="387" width="120" height="50" as="geometry" />
        </mxCell>
        <mxCell id="TdBKON88CPRP7MeFWVMC-90" value="统计预期失败信息" style="rounded=1;whiteSpace=wrap;html=1;fontSize=12;glass=0;strokeWidth=1;shadow=0;imageHeight=24;" vertex="1" parent="WIyWlLk6GJQsqaUBKTNV-1">
          <mxGeometry x="642" y="224" width="120" height="50" as="geometry" />
        </mxCell>
        <mxCell id="TdBKON88CPRP7MeFWVMC-99" style="edgeStyle=orthogonalEdgeStyle;rounded=0;orthogonalLoop=1;jettySize=auto;html=1;exitX=0.5;exitY=1;exitDx=0;exitDy=0;entryX=0;entryY=0.5;entryDx=0;entryDy=0;" edge="1" parent="WIyWlLk6GJQsqaUBKTNV-1" source="TdBKON88CPRP7MeFWVMC-91" target="TdBKON88CPRP7MeFWVMC-43">
          <mxGeometry relative="1" as="geometry" />
        </mxCell>
        <mxCell id="TdBKON88CPRP7MeFWVMC-91" value="生成单次签到信息" style="rounded=1;whiteSpace=wrap;html=1;fontSize=12;glass=0;strokeWidth=1;shadow=0;imageHeight=24;" vertex="1" parent="WIyWlLk6GJQsqaUBKTNV-1">
          <mxGeometry x="372" y="493" width="120" height="50" as="geometry" />
        </mxCell>
      </root>
    </mxGraphModel>
  </diagram>
</mxfile>
